HIERARCHY
ROOT hip
{
	OFFSET 0.000000 0.000000 0.000000 
	CHANNELS 6 Xposition Yposition Zposition Xrotation Zrotation Yrotation
	JOINT abdomen
	{
		OFFSET 0.000000 3.402643 0.000000 
		CHANNELS 3 Xrotation Zrotation Yrotation
		JOINT chest
		{
			OFFSET 0.000000 8.438565 -0.680529 
			CHANNELS 3 Xrotation Zrotation Yrotation
			JOINT neck
			{
				OFFSET 0.000000 10.207942 -0.272212 
				CHANNELS 3 Xrotation Zrotation Yrotation
				JOINT head
				{
					OFFSET 0.000000 3.130431 0.000000 
					CHANNELS 3 Xrotation Zrotation Yrotation
					End Site
					{
						OFFSET 0.000000 3.130435 0.000000 
					}
				}
			}
			JOINT lCollar
			{
				OFFSET 3.470700 6.669187 -0.816635 
				CHANNELS 3 Yrotation Zrotation Xrotation
				JOINT lShldr
				{
					OFFSET 3.198488 0.000000 0.000000 
					CHANNELS 3 Zrotation Yrotation Xrotation
					JOINT lForeArm
					{
						OFFSET 10.139888 0.000000 0.000000 
						CHANNELS 3 Yrotation Zrotation Xrotation
						JOINT lHand
						{
							OFFSET 8.370511 0.000000 0.000000 
							CHANNELS 3 Zrotation Yrotation Xrotation
							End Site
							{
								OFFSET 4.083176 0.000000 0.000000 
							}
						}
					}
				}
			}
			JOINT rCollar
			{
				OFFSET -3.470700 6.669187 -0.816635 
				CHANNELS 3 Yrotation Zrotation Xrotation
				JOINT rShldr
				{
					OFFSET -3.198488 0.000000 0.000000 
					CHANNELS 3 Zrotation Yrotation Xrotation
					JOINT rForeArm
					{
						OFFSET -10.139888 0.000000 0.000000 
						CHANNELS 3 Yrotation Zrotation Xrotation
						JOINT rHand
						{
							OFFSET -8.370511 0.000000 0.000000 
							CHANNELS 3 Zrotation Yrotation Xrotation
							End Site
							{
								OFFSET -4.083176 0.000000 0.000000 
							}
						}
					}
				}
			}
		}
	}
	JOINT lThigh
	{
		OFFSET 5.308129 -1.633274 1.361059 
		CHANNELS 3 Xrotation Zrotation Yrotation
		JOINT lShin
		{
			OFFSET -2.041588 -20.007561 0.000000 
			CHANNELS 3 Xrotation Zrotation Yrotation
			JOINT lFoot
			{
				OFFSET 0.000000 -19.190928 -1.224953 
				CHANNELS 3 Xrotation Yrotation Zrotation
				End Site
				{
					OFFSET 0.000000 -2.449906 4.627600 
				}
			}
		}
	}
	JOINT rThigh
	{
		OFFSET -5.308129 -1.633274 1.361059 
		CHANNELS 3 Xrotation Zrotation Yrotation
		JOINT rShin
		{
			OFFSET 2.041588 -20.007561 0.000000 
			CHANNELS 3 Xrotation Zrotation Yrotation
			JOINT rFoot
			{
				OFFSET 0.000000 -19.190928 -1.224953 
				CHANNELS 3 Xrotation Yrotation Zrotation
				End Site
				{
					OFFSET 0.000000 -2.449906 4.627600 
				}
			}
		}
	}
}
MOTION
Frames: 16
Frame Time: 0.033333
-53.492527 10.390127 43.182076 101.102623 7.876279 18.559809 0.000000 0.000000 0.000000 -38.226952 -0.790200 5.485606 -12.155329 -18.821598 -1.401779 -22.200472 12.014280 9.195668 -34.369896 3.862665 25.000000 -83.333313 14.204454 -5.748775 -145.162140 4.422125 169.358917 47.476971 -6.901930 -71.384377 24.255598 -24.553974 25.000000 2.823627 -30.593781 43.320595 -77.124786 -39.883152 -112.064499 31.228823 -26.545115 -78.440323 1.645123 29.650677 30.317488 9.481143 -3.024561 -0.517694 33.180237 -11.512879 20.362356 12.894861 -12.856037 -3.048773 5.053813 5.919177 0.853200 51.022358 -9.630197 44.283943 
-53.182690 10.365497 43.052284 98.444893 8.968451 16.269323 0.000000 0.000000 0.000000 -37.681198 -0.896579 5.497026 -11.967596 -18.324432 -1.362455 -21.639885 12.355829 9.609331 -33.049294 3.017324 25.000000 -82.081177 13.600713 -6.573414 -143.448257 4.345466 167.303436 47.027435 -6.803043 -71.090996 26.298279 -23.341606 25.000000 12.383228 -32.159096 43.862766 -92.237549 -42.977135 -127.578934 29.497486 -27.685892 -77.854797 2.436411 29.055084 29.999325 13.646714 -2.233766 -0.600924 33.094959 -9.126952 22.278107 13.869749 -13.021414 -3.113499 5.474381 6.536818 1.006465 53.414562 -10.205755 42.529373 
-52.827930 10.411517 42.893494 96.478355 9.467455 14.190360 0.000000 0.000000 0.000000 -38.274208 -0.628673 5.525281 -10.987679 -17.726162 -1.312154 -21.410624 12.375084 9.564566 -32.184422 2.345705 25.000000 -81.104515 12.553093 -7.166541 -141.417938 4.221704 164.792953 45.743477 -7.255605 -70.901123 26.662119 -22.088297 25.000000 19.275026 -31.528139 45.185371 75.573395 -135.338089 42.944553 29.652308 -27.887541 -77.765587 2.734208 28.954838 29.970583 16.894976 -1.883660 -0.735276 32.942806 -7.115746 23.885113 14.428134 -13.149796 -3.173689 5.573196 6.860857 1.113225 55.178795 -11.308349 40.073215 
-52.437771 10.533386 42.713116 95.061913 9.917447 12.657376 0.000000 0.000000 0.000000 -39.486183 -0.723568 5.430069 -9.520836 -16.604446 -1.224746 -21.403450 11.912550 9.248256 -31.452925 1.972059 25.000000 -80.499329 11.027843 -7.472413 -139.117447 3.886384 162.068588 43.574280 -8.018814 -70.533203 26.536791 -21.147051 25.000000 25.909649 -30.062546 47.289959 66.948364 -132.184235 34.440945 27.377724 -33.618881 -75.862976 2.739469 28.724298 29.809059 18.773222 -1.619973 -0.810596 31.977661 -6.690249 23.804115 14.750233 -13.706200 -3.349844 5.636072 7.273499 1.200982 55.292900 -12.340453 38.665138 
-52.032207 10.717824 42.535557 93.729576 11.003851 11.795087 0.000000 0.000000 0.000000 -40.561398 -1.803263 5.136449 -7.904909 -15.293152 -1.125223 -21.553894 11.492596 9.217206 -30.426666 1.799562 25.000000 -80.006294 9.223384 -7.688969 -136.355270 3.232271 159.170410 40.667713 -8.324780 -69.482330 27.237206 -20.686201 25.000000 33.840897 -28.703115 50.677586 58.905411 -128.612701 21.672485 22.653748 -44.853420 -70.602524 3.042350 27.670412 29.189554 19.345036 -1.151800 -0.740779 30.105511 -7.658002 21.049213 15.242238 -15.359938 -3.913637 6.435065 8.152341 1.430986 53.658035 -12.841906 40.439682 
-51.645145 10.944315 42.373974 92.113480 12.788388 11.253752 0.000000 0.000000 0.000000 -41.054474 -3.582493 4.725824 -6.257076 -14.561045 -1.071714 -21.900070 11.700533 9.858023 -29.167318 1.636735 25.000000 -79.349625 7.231333 -7.984308 -132.996185 2.475289 156.116180 37.381401 -7.661767 -67.729050 28.612215 -20.473413 25.000000 42.047630 -27.404535 55.300167 56.452141 -124.106911 18.126196 5.309670 -48.790726 -62.911179 4.001552 25.896303 28.194248 19.316416 -0.439058 -0.573104 27.624451 -8.935655 15.793057 15.853098 -18.090368 -4.857314 8.812163 9.601630 1.931810 50.741447 -13.101494 44.908566 
-51.292839 11.206422 42.217766 90.180046 14.754785 10.552055 0.000000 0.000000 0.000000 -40.981945 -5.274958 4.390093 -4.398564 -14.324617 -1.058942 -22.340649 12.320580 10.816668 -28.210531 1.386630 25.000000 -78.491241 5.063287 -8.366699 -129.104248 2.156267 153.051392 34.347328 -6.387310 -65.923042 29.716650 -20.102362 25.000000 49.133434 -26.848593 60.209694 49.780605 -120.811638 14.446038 -6.805390 -53.633656 -54.188797 5.396258 24.028975 27.188040 19.940329 0.546911 -0.386525 24.632969 -9.941266 10.884694 16.229139 -21.327230 -6.031430 13.060035 11.272137 2.640381 47.195877 -13.734282 48.898785 
-50.974289 11.512732 42.056904 87.919998 16.375927 9.303022 0.000000 0.000000 0.000000 -40.360966 -6.291061 4.225863 -2.342478 -14.088778 -1.044033 -22.646540 12.647328 11.513939 -28.060488 0.862886 25.000000 -77.421158 2.895551 -8.857341 -124.950768 2.724166 150.124847 32.077713 -5.194124 -64.649925 30.336544 -19.249620 25.000000 54.027020 -27.646854 64.145142 37.199696 -118.255890 9.100214 -15.756762 -57.274990 -44.939205 6.900207 22.701353 26.504980 22.096609 1.747223 -0.248511 21.198103 -11.035885 8.613670 16.239517 -24.395144 -7.197563 18.745245 12.561341 3.409889 43.757919 -14.386991 51.027122 
-50.678959 11.886526 41.881813 85.354240 17.295988 7.508035 0.000000 0.000000 0.000000 -39.069382 -6.409000 4.278579 -0.400219 -13.584185 -1.010138 -22.754795 12.175238 11.406878 -28.965986 0.004521 25.000000 -76.155807 0.864043 -9.446934 -120.798523 4.249799 147.505234 30.794737 -4.280848 -63.895199 30.710121 -17.814255 25.000000 56.881645 -28.843008 66.775047 22.568420 -116.017624 -3.504575 -23.252419 -58.852921 -37.604149 8.231176 22.235859 26.282396 25.976881 3.172244 -0.184441 17.536032 -12.879025 8.235530 15.953773 -26.714672 -8.154523 24.864023 12.922029 4.063269 40.923359 -14.024323 51.815945 
-50.387451 12.355954 41.670605 82.789314 17.449682 5.650889 0.000000 0.000000 0.000000 -37.191708 -5.885348 4.497464 1.072498 -12.859851 -0.951664 -22.908663 11.082397 10.565495 -30.757086 -0.922679 25.000000 -74.859558 -1.224944 -10.027608 -116.689781 6.278425 145.283508 30.169119 -2.999623 -63.124588 30.712811 -15.964935 25.000000 59.071350 -29.874514 69.017220 6.641321 -114.314293 -18.494930 -33.601135 -59.117596 -31.065271 8.892360 22.516661 26.444424 30.908764 4.972757 -0.056769 13.893630 -15.349457 8.514115 15.465759 -28.160334 -8.739095 30.518423 12.522678 4.488583 38.750996 -12.088664 52.039429 
-50.084740 12.937696 41.391773 80.727531 17.031559 4.352259 0.000000 0.000000 0.000000 -34.975727 -5.143960 4.770249 1.657561 -11.972966 -0.892512 -23.258808 9.672848 9.449441 -33.098015 -1.422468 25.000000 -73.758293 -3.880537 -10.437029 -112.637962 8.268458 143.350937 29.695002 -0.686871 -61.841995 29.682001 -13.947242 25.000000 61.182320 -29.440939 71.219116 -6.128970 -111.575729 -29.067810 -46.385849 -58.493343 -25.668308 8.402160 23.148682 26.790485 36.018665 7.506453 0.214718 10.466964 -17.551403 8.470636 14.642817 -28.907976 -9.044501 35.519733 11.911937 4.844387 36.733402 -8.555170 51.880093 
-49.759281 13.628384 41.026569 79.561325 16.355965 3.967061 0.000000 0.000000 0.000000 -32.694302 -4.556943 4.998637 0.945406 -10.925057 -0.815263 -23.570786 8.088638 8.311481 -35.603626 -1.082320 25.000000 -72.982674 -7.577970 -10.604272 -108.758904 9.856473 141.513580 28.961344 2.653100 -60.019100 27.119625 -11.920820 25.000000 63.033520 -26.624121 72.694412 -14.791370 -107.949188 -34.912716 -49.852890 -57.649727 -28.263199 6.493403 23.711216 27.051834 40.454727 10.926068 0.724757 7.692820 -18.800787 7.181578 13.143130 -29.325598 -9.190482 39.957691 11.782524 5.250775 34.446674 -5.081501 50.220875 
-49.394802 14.407293 40.595177 79.196335 15.764225 4.272211 0.000000 0.000000 0.000000 -30.414591 -4.247225 5.174654 -1.058967 -9.683578 -0.713353 -23.477953 6.572826 7.253482 -37.981777 0.063514 25.000000 -72.363495 -12.358171 -10.645591 -105.205734 11.103073 139.590057 27.858168 6.208079 -58.165787 23.473328 -10.073460 25.000000 64.018066 -21.544733 72.646812 -23.785364 -103.914490 -39.097122 -44.770237 -56.111195 -37.057579 3.562118 23.864960 27.021763 43.868919 14.935114 1.474582 5.589643 -19.223755 4.936270 10.857426 -29.849953 -9.375460 44.113235 12.320995 5.771493 31.816702 -2.781239 47.523285 
-48.970253 15.263867 40.137657 79.266479 15.417234 4.715110 0.000000 0.000000 0.000000 -28.024509 -4.027684 5.314347 -3.877346 -8.361369 -0.615585 -22.901388 5.426380 6.458238 -40.044319 1.610182 25.000000 -71.631615 -17.886160 -10.744648 -101.896255 12.368833 137.641632 26.544870 9.109600 -56.830559 19.830709 -8.501788 25.000000 63.804760 -14.706794 71.160576 -34.763172 -100.504669 -45.875275 -31.542831 -52.609058 -48.825272 0.329109 23.636858 26.735281 46.355099 18.861723 2.242166 3.942039 -19.560781 2.895701 7.828777 -30.725281 -9.705921 48.345058 13.207550 6.391446 29.180616 -1.002044 45.166687 
-48.472569 16.205481 39.690025 79.266144 15.320952 4.656000 0.000000 0.000000 0.000000 -25.316179 -3.567442 5.513874 -6.865849 -7.027771 -0.512637 -22.029356 4.726139 6.172188 -41.674728 3.012911 25.000000 -70.623573 -23.636459 -11.012486 -98.538574 14.202623 136.073456 25.528610 10.899092 -56.109077 17.306732 -7.144841 25.000000 61.918232 -7.865088 68.622238 -49.189720 -98.940788 -55.551701 -18.633705 -49.827633 -55.068588 -2.551443 23.245346 26.331112 48.203754 22.207472 2.949015 2.412735 -20.427864 2.540900 4.218602 -31.855490 -10.105742 52.997276 13.808798 6.972923 26.726316 1.509210 43.533421 
-47.911930 17.245417 39.254326 78.814949 15.462951 3.760827 0.000000 0.000000 0.000000 -22.019625 -2.788769 5.775309 -9.792333 -5.691801 -0.416895 -21.081388 4.142535 6.451087 -42.847347 3.969803 25.000000 -69.027222 -29.086561 -11.603651 -95.055695 16.882738 135.031143 25.178814 11.821412 -55.735741 16.315580 -5.911121 25.000000 58.431816 -2.148605 65.468445 -60.310360 -98.538231 -63.033302 -7.056045 -47.244545 -60.073154 -4.873656 22.869213 25.943802 49.837135 24.824713 3.513906 0.834252 -21.748650 5.364457 0.222634 -32.930340 -10.474351 58.507442 13.421425 7.407201 24.488310 6.346906 43.290497 
